<svg width="17" height="16" viewBox="0 0 17 16" fill="none" xmlns="http://www.w3.org/2000/svg">
<g clip-path="url(#clip0_172420_8707)">
<path d="M16.452 8C16.452 12.3918 12.8918 15.952 8.5 15.952C4.10823 15.952 0.547993 12.3918 0.547993 8C0.547993 3.60823 4.10823 0.0479933 8.5 0.0479933C12.8918 0.0479933 16.452 3.60823 16.452 8Z" fill="#2563EB" stroke="#6B7280" stroke-width="0.0959865"/>
<path d="M7.2501 10.2659H5.26632V8.04882H7.2501H7.2981V8.00083V6.23792C7.2981 5.24455 7.59374 4.47966 8.10982 3.96317C8.62594 3.44663 9.36808 3.17299 10.2719 3.17299C10.707 3.17299 11.1527 3.21188 11.4901 3.25086C11.6587 3.27035 11.8001 3.28982 11.8992 3.30442C11.9487 3.31172 11.9877 3.3178 12.0143 3.32205L12.0149 3.32215V5.20217H11.0538C10.5461 5.20217 10.2054 5.36025 9.99258 5.60663C9.78087 5.85171 9.7019 6.17696 9.7019 6.50005V8.00083V8.04882H9.74989H11.9125L11.5728 10.2659H9.74989H9.7019V10.3139V15.8628C9.30988 15.9215 8.90858 15.9528 8.5 15.9528C8.0913 15.9528 7.69 15.9225 7.2981 15.8629V10.3139V10.2659H7.2501Z" fill="white" stroke="#6B7280" stroke-width="0.0959865"/>
</g>
<defs>
<clipPath id="clip0_172420_8707">
<rect width="16" height="16" fill="white" transform="translate(0.5)"/>
</clipPath>
</defs>
</svg>
