<svg width="19" height="18" viewBox="0 0 19 18" fill="none" xmlns="http://www.w3.org/2000/svg">
<g clip-path="url(#clip0_172420_3581)">
<path d="M0.5 0H18.5V9H0.5V0Z" fill="#0038A8"/>
<path d="M0.5 9H18.5V18H0.5V9Z" fill="#CE1126"/>
<path d="M16.0883 9L0.5 18V0" fill="white"/>
<path d="M1.38594 1.5625L1.92734 2.03008L2.55664 1.68555L2.27539 2.34297L2.80273 2.83516L2.08203 2.77539L1.77969 3.42227L1.61445 2.72617L0.904297 2.63477L1.51953 2.26562L1.38594 1.5625ZM13.5816 8.05234L13.5957 8.76601L14.2742 9.00156L13.5957 9.23711L13.5816 9.95078L13.1492 9.38125L12.4637 9.59219L12.875 9.00156L12.4637 8.41445L13.1492 8.62187L13.5816 8.05234ZM1.7832 14.5809L2.08555 15.2277L2.79922 15.168L2.27891 15.6602L2.55664 16.3176L1.92734 15.973L1.38594 16.4406L1.52305 15.7375L0.907813 15.3684L1.61797 15.277L1.7832 14.5809Z" fill="#FCD116"/>
<path d="M6.08633 5.20312L5.85429 5.43516L5.96679 7.20352L5.85078 7.21406L5.63984 5.60039L5.44648 5.79023L5.73476 7.23164C5.50342 7.27842 5.28359 7.37041 5.08789 7.50234L4.26875 6.27891H3.99804L4.98945 7.57266L4.90156 7.64648L3.73086 6.31055H3.40039V6.64453L4.73633 7.81523L4.65898 7.90312L3.36523 6.91172V7.18242L4.58867 8.00156C4.4579 8.1975 4.3671 8.41733 4.32148 8.64844L2.88008 8.36016L2.68672 8.55352L4.3039 8.76445L4.28984 8.88398L2.52148 8.76797L2.28593 9L2.52148 9.23203L4.28984 9.11953L4.30039 9.23555L2.68672 9.44648L2.87656 9.63984L4.31797 9.35156C4.36474 9.5829 4.45674 9.80273 4.58867 9.99844L3.36523 10.8176V11.0883L4.65898 10.0969L4.73281 10.1848L3.39687 11.3555V11.6859H3.73437L4.90508 10.35L4.99297 10.4273L4.00156 11.7211H4.27226L5.0914 10.4977C5.2873 10.6285 5.50714 10.7193 5.73828 10.7648L5.45 12.2062L5.64336 12.3996L5.85429 10.7824L5.97031 10.7965L5.85781 12.5648L6.08984 12.8004L6.32187 12.5648L6.20937 10.7965L6.32539 10.7859L6.53633 12.3996L6.72968 12.2098L6.4414 10.7684C6.67274 10.7216 6.89257 10.6296 7.08828 10.4977L7.90742 11.7211H8.17812L7.17968 10.4273L7.26758 10.3535L8.43828 11.6895H8.76875V11.3555L7.43281 10.1848L7.51015 10.0969L8.8039 11.0883V10.8176L7.58047 9.99844C7.71124 9.8025 7.80204 9.58267 7.84765 9.35156L9.28906 9.63984L9.48242 9.44648L7.86523 9.23555L7.87929 9.11953L9.64765 9.23203L9.8832 9L9.64765 8.76797L7.87929 8.88398C7.87929 8.8418 7.87226 8.80312 7.86875 8.76445L9.48242 8.55352L9.29258 8.36016L7.85117 8.64844C7.80439 8.4171 7.7124 8.19727 7.58047 8.00156L8.8039 7.18242V6.91172L7.51015 7.90312L7.43633 7.81523L8.77226 6.64453V6.31406H8.43828L7.26758 7.65L7.17968 7.57266L8.17109 6.27891H7.90039L7.08125 7.50234C6.88531 7.37157 6.66548 7.28077 6.43437 7.23516L6.72265 5.79375L6.52929 5.60039L6.31836 7.21758L6.20234 7.20352L6.31484 5.43516L6.08633 5.20312Z" fill="#FCD116"/>
</g>
<defs>
<clipPath id="clip0_172420_3581">
<rect x="0.5" width="18" height="18" rx="9" fill="white"/>
</clipPath>
</defs>
</svg>
